<svg width="161" height="83" viewBox="0 0 161 83" fill="none" xmlns="http://www.w3.org/2000/svg">
<mask id="mask0_177_580" style="mask-type:alpha" maskUnits="userSpaceOnUse" x="0" y="0" width="161" height="83">
<rect width="161" height="83" fill="#C4C4C4"/>
</mask>
<g mask="url(#mask0_177_580)">
</g>
<g clip-path="url(#clip0_177_580)">
<path d="M82.3113 23.7439C85.1322 20.0202 89.0538 20.0021 89.0538 20.0021C89.0538 20.0021 89.6372 23.503 86.8348 26.8754C83.8426 30.4764 80.4415 29.8872 80.4415 29.8872C80.4415 29.8872 79.8029 27.0551 82.3113 23.7439ZM80.8003 32.3395C82.2515 32.3395 84.9448 30.3417 88.4505 30.3417C94.4851 30.3417 96.8591 34.6422 96.8591 34.6422C96.8591 34.6422 92.216 37.0198 92.216 42.7888C92.216 49.2967 98 51.5395 98 51.5395C98 51.5395 93.9568 62.9372 88.4955 62.9372C85.9871 62.9372 84.037 61.2443 81.3941 61.2443C78.7008 61.2443 76.028 63.0004 74.2873 63.0004C69.3003 63.0005 63 52.1886 63 43.4977C63 34.947 68.3328 30.4615 73.3347 30.4615C76.5864 30.4615 79.1098 32.3395 80.8003 32.3395Z" fill="#919EAB"/>
</g>
<defs>
<clipPath id="clip0_177_580">
<rect width="35" height="43" fill="white" transform="translate(63 20)"/>
</clipPath>
</defs>
</svg>
