<svg width="161" height="83" viewBox="0 0 161 83" fill="none" xmlns="http://www.w3.org/2000/svg">
<mask id="mask0_177_575" style="mask-type:alpha" maskUnits="userSpaceOnUse" x="0" y="0" width="161" height="83">
<rect width="161" height="83" fill="#C4C4C4"/>
</mask>
<g mask="url(#mask0_177_575)">
</g>
<g clip-path="url(#clip0_177_575)">
<path d="M130.312 33.7861C130.312 32.5272 131.315 31.4953 132.543 31.4953C133.137 31.4953 133.69 31.743 134.12 32.1557C134.55 32.5891 134.775 33.167 134.775 33.7655C134.775 34.364 134.55 34.9418 134.12 35.3752C133.69 35.8086 133.137 36.0563 132.543 36.0563C131.315 36.0563 130.312 35.045 130.312 33.7861ZM130.128 33.7861C130.128 35.1482 131.213 36.2627 132.564 36.2627C133.219 36.2627 133.813 36.015 134.263 35.5403C134.714 35.0657 134.98 34.4465 134.98 33.7861C134.98 33.1257 134.734 32.5066 134.263 32.0319C133.792 31.5572 133.199 31.3096 132.564 31.3096C131.213 31.3096 130.128 32.424 130.128 33.7861ZM131.643 35.2514H131.991V34.0957H132.769C132.891 34.0957 132.994 34.0957 133.076 34.137C133.178 34.1989 133.24 34.3227 133.26 34.4878L133.301 34.9418V35.1482C133.321 35.1895 133.321 35.2101 133.342 35.2308H133.772V35.1689C133.71 35.1482 133.69 35.0863 133.669 35.0038C133.649 34.9625 133.649 34.8799 133.649 34.7767L133.628 34.4259C133.628 34.2608 133.588 34.1576 133.547 34.0957C133.485 34.0338 133.403 33.9719 133.301 33.9306C133.424 33.8687 133.506 33.7861 133.567 33.6829C133.628 33.5797 133.649 33.4559 133.649 33.2908C133.649 32.9812 133.526 32.7749 133.301 32.651C133.178 32.5891 133.014 32.5685 132.83 32.5685H131.663L131.643 35.2514ZM131.97 33.7861V32.8574H132.789C132.912 32.8574 133.014 32.878 133.076 32.9193C133.199 32.9812 133.26 33.1257 133.26 33.3114C133.26 33.4972 133.219 33.621 133.117 33.6829C133.035 33.7448 132.912 33.7861 132.748 33.7861H131.97ZM34.9701 37.1914L25.0203 52.9587H31.8173L41.3986 37.8931L34.9701 37.1914ZM75.9362 36.8405V31H56.5894C53.9484 31.1651 52.8019 32.4447 51.942 33.3527C51.0208 34.3227 50.509 36.3659 50.509 36.3659V31.0413H40.2111C39.4332 31.0413 38.6962 31.3715 38.1434 32.1557C37.5701 32.9193 35.2158 36.8405 35.2158 36.8405H75.9362ZM128.551 36.8405V31H107.853C105.233 31.1651 104.066 32.4447 103.206 33.3527C102.285 34.3227 101.773 36.3659 101.773 36.3659V36.8405H128.551ZM82.7331 31.0206H76.9393V36.8405H82.7331V31.0206ZM101.711 31.0206H95.9381V36.8405H101.711V31.0206ZM101.711 38.9456L96.02 38.5947V45.3433C96.02 45.3433 95.9995 47.2833 94.1365 47.2833H84.3914C84.3914 47.2833 82.7331 47.1388 82.7331 45.364V37.6867L77.0007 37.2739V47.6135C77.922 52.5666 82.3646 52.9587 82.3646 52.9587C82.3646 52.9587 82.815 52.9794 82.8969 53H96.1019C96.1019 53 101.752 52.546 101.752 47.0563L101.711 38.9456ZM44.6128 52.9587H71.6778C76.3866 52.0094 76.8779 47.6754 76.8779 47.6754C77.1031 46.3959 76.9803 45.3433 76.9803 45.3433C76.837 44.4765 75.1991 40.6379 71.6778 40.3077C69.5691 40.1013 50.7956 38.5947 50.7956 38.5947C51.1641 40.4934 52.0035 41.4634 52.5767 42C53.887 43.2589 55.9547 43.6304 55.9547 43.6304L70.429 44.848C70.8794 44.8687 71.7188 44.9925 71.6983 46.1069C71.6983 46.2514 71.5755 47.2214 70.5109 47.2214H50.2633V38.5535L44.6333 38.1407C44.6128 38.1407 44.6128 52.9587 44.6128 52.9587ZM101.752 53H122.471C127.671 52.6904 128.408 47.7167 128.408 47.7167C128.592 46.4165 128.449 45.3433 128.449 45.3433C128.306 44.167 126.647 40.6173 123.105 40.2664C121.017 40.06 102.121 38.9456 102.121 38.9456C102.674 40.9062 103.431 41.5047 104.004 42.0413C105.315 43.3208 107.26 43.6098 107.26 43.6098C107.751 43.651 121.877 44.848 121.877 44.848C122.328 44.8687 123.249 44.9099 123.249 46.0244C123.249 46.3546 123.085 46.7054 122.88 46.8912C122.88 46.8912 122.389 47.1595 121.918 47.1595H101.814L101.752 53Z" fill="#919EAB"/>
</g>
<defs>
<clipPath id="clip0_177_575">
<rect width="110" height="22" fill="white" transform="translate(25 31)"/>
</clipPath>
</defs>
</svg>
