<svg width="161" height="83" viewBox="0 0 161 83" fill="none" xmlns="http://www.w3.org/2000/svg">
<mask id="mask0_177_585" style="mask-type:alpha" maskUnits="userSpaceOnUse" x="0" y="0" width="161" height="83">
<rect width="161" height="83" fill="#C4C4C4"/>
</mask>
<g mask="url(#mask0_177_585)">
</g>
<g clip-path="url(#clip0_177_585)">
<path d="M105.624 41.3126C105.624 55.2922 94.292 66.6251 80.3129 66.6251C66.3338 66.6251 55.0015 55.2922 55.0015 41.3126C55.0015 27.3328 66.3338 16 80.3129 16C94.292 16 105.624 27.3328 105.624 41.3126Z" fill="white"/>
<path d="M88.0282 41.3123C88.0282 37.051 84.5742 33.5967 80.3131 33.5967C76.0517 33.5967 72.5975 37.051 72.5975 41.3123C72.5975 45.5735 76.0517 49.0279 80.3131 49.0279C84.5742 49.0279 88.0282 45.5735 88.0282 41.3123Z" fill="#919EAB"/>
<path d="M80.3139 16C77.9023 16 75.5728 16.3444 73.3633 16.9743V30.6565C75.3616 29.3506 77.7477 28.5885 80.3134 28.5885C87.34 28.5885 93.0369 34.2852 93.0369 41.3124C93.0369 48.3396 87.34 54.0362 80.3134 54.0362C73.2862 54.0362 67.5893 48.3396 67.5893 41.3124C67.5893 41.0863 67.5958 40.8618 67.6072 40.6386L67.5893 40.6526V19.4344C60.0632 23.821 55.0013 31.9731 55.0013 41.3124C55.0013 55.2919 66.3343 66.6249 80.3139 66.6249C94.2933 66.6249 105.624 55.2919 105.624 41.3124C105.624 27.333 94.2933 16 80.3139 16Z" fill="#919EAB"/>
</g>
<defs>
<clipPath id="clip0_177_585">
<rect width="50.625" height="50.625" fill="white" transform="translate(55 16)"/>
</clipPath>
</defs>
</svg>
