<svg width="161" height="83" viewBox="0 0 161 83" fill="none" xmlns="http://www.w3.org/2000/svg">
<mask id="mask0_177_582" style="mask-type:alpha" maskUnits="userSpaceOnUse" x="0" y="0" width="161" height="83">
<rect width="161" height="83" fill="#C4C4C4"/>
</mask>
<g mask="url(#mask0_177_582)">
</g>
<g clip-path="url(#clip0_177_582)">
<path d="M1 60H37.4988V24H1V60ZM24.3987 26.751C30.8612 28.8379 35.5092 34.8617 35.5251 41.9921C35.541 49.0118 30.9727 55.0197 24.3987 57.249V26.751ZM19.2415 25.9289C20.4034 25.9289 21.645 26.0711 22.6796 26.2925C22.6796 34.4506 14.6731 41.1541 6.42787 41.1541H2.97377C3.5468 32.7905 10.5664 25.9289 19.2415 25.9289ZM6.42787 42.8458C14.6891 42.8458 22.6796 49.5494 22.6796 57.7075C21.645 57.913 20.3398 58.0711 19.2415 58.0711C10.5505 58.0553 3.30804 51.1779 2.97377 42.8458H6.42787Z" fill="#919EAB"/>
<path d="M49.7235 45.1541V42.8933H57.3161V40H49.7235V35.7945H57.8096V32.917H46.6196V45.0593C46.6196 48.1265 47.9407 50.2292 51.0446 50.6561C51.1083 50.6719 51.172 50.6719 51.2197 50.6719H51.2834C51.6017 50.7036 51.9201 50.7352 52.2703 50.7352H58.0165V47.8577H52.2862C51.2993 47.8261 49.7235 47.3518 49.7235 45.1541Z" fill="#919EAB"/>
<path d="M60.229 41.3122V50.7193H63.3489V32.9011H60.229V41.3122Z" fill="#919EAB"/>
<path d="M72.2627 37.4229C68.3311 37.4229 65.3863 40.0948 65.3863 44.2529V44.3636C65.3863 48.4268 68.2356 51.0513 72.3423 51.0513C74.316 51.0513 76.1625 50.5138 77.8657 48.743L75.9874 46.9406C75.0005 47.9209 74.0295 48.4268 72.4378 48.4268C70.1297 48.4268 68.5857 47.0987 68.4902 45.0434H78.6934C78.7411 44.5375 78.7411 43.9683 78.7411 43.9683C78.7411 40.3161 76.1625 37.4229 72.2627 37.4229ZM68.5539 42.8616C68.6972 41.2964 70.3048 40.0315 72.2468 40.0315C74.0773 40.0315 75.5576 41.3122 75.5576 42.8616H68.5539Z" fill="#919EAB"/>
<path d="M87.4957 40.1739C88.8965 40.1739 89.9311 40.6798 90.8225 41.581L92.7485 39.6047C91.2363 38.0237 89.4377 37.3755 87.4957 37.3755C83.5323 37.3755 80.3488 40.2688 80.3488 44.2213C80.3488 48.1739 83.5164 51.083 87.4798 51.083C89.4217 51.083 91.2204 50.4348 92.7326 48.8379L90.8066 46.8617C89.9152 47.7628 88.8806 48.2846 87.4798 48.2846C85.1877 48.2846 83.4368 46.5613 83.4368 44.2213C83.4527 41.8972 85.1877 40.1739 87.4957 40.1739Z" fill="#919EAB"/>
<path d="M97.7944 45.1543V40.6167H100.628V37.8183H97.8103V32.8855H94.6905V45.344C94.786 48.2373 96.1071 50.2136 99.1155 50.6246C99.1792 50.6404 99.2429 50.6562 99.3065 50.6562H99.3543C99.6727 50.6879 100.007 50.7195 100.341 50.7195H100.675V47.842H100.357C99.3702 47.8262 97.7944 47.3519 97.7944 45.1543Z" fill="#919EAB"/>
<path d="M106.326 39.7469V37.8339H103.238V50.7193H106.326V43.9367C106.326 41.8181 107.695 40.4742 109.844 40.4742C110.337 40.4742 110.783 40.5217 111.133 40.6007V37.6284C111.006 37.5967 110.544 37.5493 110.21 37.5493C108.348 37.5651 106.947 38.4189 106.326 39.7469Z" fill="#919EAB"/>
<path d="M118.742 37.4387C114.778 37.4387 111.611 40.4111 111.611 44.2688C111.611 48.1265 114.762 51.0988 118.742 51.0988C122.673 51.0988 125.873 48.1265 125.873 44.2688C125.873 40.4111 122.689 37.4387 118.742 37.4387ZM118.742 48.3162C116.434 48.3162 114.699 46.5454 114.699 44.2688C114.699 41.9921 116.434 40.2213 118.742 40.2213C121.034 40.2213 122.785 41.9921 122.785 44.2688C122.785 46.5454 121.034 48.3162 118.742 48.3162Z" fill="#919EAB"/>
<path d="M127.783 40.9962V50.7037H130.903V32.8855H127.783V40.9962Z" fill="#919EAB"/>
<path d="M142.125 45.3122C142.125 47.3517 140.915 48.2213 139.275 48.2213C137.652 48.2213 136.426 47.3517 136.426 45.3438V37.8181H133.29V45.5968C133.29 49.2806 136.012 51.0513 139.244 51.0513C142.507 51.0513 145.26 49.2648 145.26 45.5335V41.5651V37.8339H142.125V45.3122Z" fill="#919EAB"/>
<path d="M157.023 46.5929L155.066 43.8893L157.501 40.6324L159.57 37.834H156.18L153.346 41.6917L150.497 37.834H147.123L149.049 40.4427L151.627 43.9209L148.921 47.6364L146.677 50.7352H150.02L153.331 46.1818L156.657 50.7352H160L157.023 46.5929Z" fill="#919EAB"/>
</g>
<defs>
<clipPath id="clip0_177_582">
<rect width="159" height="36" fill="white" transform="translate(1 24)"/>
</clipPath>
</defs>
</svg>
