<svg width="161" height="83" viewBox="0 0 161 83" fill="none" xmlns="http://www.w3.org/2000/svg">
<mask id="mask0_177_583" style="mask-type:alpha" maskUnits="userSpaceOnUse" x="0" y="0" width="161" height="83">
<rect width="161" height="83" fill="#C4C4C4"/>
</mask>
<g mask="url(#mask0_177_583)">
</g>
<g clip-path="url(#clip0_177_583)">
<path d="M151.834 49.0208V51.6478H151.402V49.6233H151.375L150.66 51.6478H150.289L149.579 49.6233V51.6478H149.143V49.0208H149.792L150.507 51.0788L151.184 49.0208H151.834ZM148.865 49.0208V49.4H148.029V51.6476H147.598V49.4H146.763V49.0208H148.865ZM138.069 45.0999C138.718 42.9525 138.718 41.6866 138.096 40.861C137.632 40.2922 136.955 40.0077 135.93 40.0077C133.643 40.0077 132.377 41.3352 131.356 44.6591C130.701 46.8398 130.701 48.1058 131.323 48.926C131.754 49.4668 132.469 49.7514 133.49 49.7514C135.744 49.7514 137.048 48.452 138.069 45.0999ZM147.009 40.2922C147.904 41.4356 148.095 42.8858 147.566 44.6594C146.081 49.5618 140.481 52.3728 132.185 52.3728C127.235 52.3728 123.868 51.3913 122.378 49.4948C121.483 48.3572 121.33 46.8735 121.854 45.0999C123.338 40.1974 128.938 37.3865 137.234 37.3865C142.151 37.3865 145.557 38.396 147.009 40.2922H147.009ZM116.068 37.8604H124.855C124.326 38.5856 114.769 51.7091 114.611 51.9323H101.125C101.059 51.5195 99.4493 38.368 99.3891 37.8604H107.653C107.712 38.2731 108.859 47.7269 108.859 47.7269C108.859 47.7269 115.943 38.0501 116.068 37.8604ZM88.8064 45.0999C89.4559 42.9525 89.4888 41.6866 88.839 40.861C88.4024 40.2922 87.6932 40.0077 86.705 40.0077C84.4129 40.0077 83.1139 41.3352 82.1258 44.6591C81.4436 46.8398 81.4436 48.1058 82.093 48.926C82.5242 49.4668 83.2393 49.7514 84.227 49.7514C86.5195 49.7514 87.8185 48.452 88.8064 45.0999ZM97.779 40.2922C98.6795 41.4356 98.8652 42.8858 98.3084 44.6594C96.8241 49.5618 91.2188 52.3728 82.9611 52.3728C78.0108 52.3728 74.6379 51.3913 73.1479 49.4948C72.2528 48.3572 72.0673 46.8735 72.5913 45.0999C74.1086 40.1974 79.7082 37.3865 87.9714 37.3865C92.9215 37.3865 96.2945 38.396 97.779 40.2922ZM71.9143 39.6008C72.2527 40.0415 72.4383 40.4819 72.3455 41.1177L68.9125 51.9603H59.8144L63.0347 41.8431C63.1547 41.4024 63.0019 41.0231 62.7562 40.7387C62.3195 40.1977 61.3918 39.8519 58.2046 40.0748C58.2046 40.0748 54.4333 51.8042 54.3676 51.9603H45.2747C45.3623 51.7092 49.5429 38.6527 49.6029 38.5243C52.7632 37.9555 56.9382 37.42 61.2718 37.42C67.1496 37.4201 70.7354 38.1452 71.9143 39.6008ZM38.7144 42.5736C38.9 41.6869 38.6217 41.0231 38.3103 40.6438C37.9721 40.1977 37.2242 39.6287 35.6798 39.6287C33.4858 39.6287 31.8429 40.7052 31.2861 42.5066L30.2054 46.6507L38.7144 42.5736ZM46.3553 42.54C46.3553 43.2037 46.2026 43.7727 46.077 44.0237C45.7986 44.0906 29.9274 47.6937 29.9274 47.6937C29.9274 47.6937 29.7688 48.4857 30.3584 48.8982C31.1335 49.4672 31.9685 49.6235 33.3876 49.6848C36.8861 49.841 41.6232 47.755 42.9499 47.1582C42.7369 47.8497 41.3724 50.8895 41.3124 51.0456C40.7228 51.2687 37.4427 52.3396 31.0078 52.373C28.5625 52.4065 24.2019 52.0886 22.4063 49.7795C21.5112 48.642 21.3531 47.0299 21.9697 45.0054C23.4269 40.1697 28.8739 37.3868 36.8532 37.3868C41.3124 37.3868 44.2213 38.2401 45.5531 39.9133C46.077 40.6104 46.3553 41.4971 46.3553 42.54ZM15.3821 31.0002H24.3877C24.2021 31.5971 18.1386 51.5808 18.0402 51.9323H9.04028C9.22565 51.3299 15.2892 31.3462 15.3821 31.0002Z" fill="#919EAB"/>
</g>
<defs>
<clipPath id="clip0_177_583">
<rect width="142.875" height="21.375" fill="white" transform="translate(9 31)"/>
</clipPath>
</defs>
</svg>
