<svg width="161" height="83" viewBox="0 0 161 83" fill="none" xmlns="http://www.w3.org/2000/svg">
<mask id="mask0_177_581" style="mask-type:alpha" maskUnits="userSpaceOnUse" x="0" y="0" width="161" height="83">
<rect width="161" height="83" fill="#C4C4C4"/>
</mask>
<g mask="url(#mask0_177_581)">
<path d="M53.7759 66.0411C67.2601 66.0411 78.1924 55.1094 78.1924 41.6252C78.1924 28.1409 67.2607 17.2092 53.7759 17.2092C40.291 17.2092 29.3593 28.1409 29.3593 41.6252C29.3593 55.1094 40.291 66.0411 53.7759 66.0411Z" fill="#919EAB"/>
<path d="M59.7212 50.2175H54.6649V31.1072H52.7897V52.1032H54.6649V52.0908H59.7212V50.2175Z" fill="white"/>
<path d="M72.3418 42.407H59.7509V40.5318H74.186C74.2052 40.8944 74.2144 41.2575 74.2144 41.625C74.2144 52.9137 65.0633 62.0642 53.7752 62.0642C42.4872 62.0642 33.336 52.9137 33.336 41.625C33.336 30.3364 42.4872 21.1858 53.7759 21.1858C54.0734 21.1858 54.3704 21.192 54.6655 21.205L54.663 23.0659C54.3675 23.0522 54.0717 23.0454 53.7759 23.0455C43.5148 23.0455 35.1957 31.3639 35.1957 41.625C35.1957 51.8867 43.5142 60.2045 53.7759 60.2045C63.7573 60.2045 71.9001 52.334 72.3368 42.4596L72.3418 42.407Z" fill="white"/>
<path d="M46.1515 36.7643C46.9133 36.7643 47.6438 36.4617 48.1824 35.923C48.7211 35.3844 49.0237 34.6539 49.0237 33.8921C49.0237 33.1304 48.7211 32.3999 48.1824 31.8612C47.6438 31.3226 46.9133 31.02 46.1515 31.02C45.3898 31.02 44.6593 31.3226 44.1206 31.8612C43.582 32.3999 43.2794 33.1304 43.2794 33.8921C43.2794 34.6539 43.582 35.3844 44.1206 35.923C44.6593 36.4617 45.3898 36.7643 46.1515 36.7643Z" fill="white"/>
<path d="M90.3163 53.6096H107.763V48.3405H96.7218V29.4726H90.3163V53.6096ZM128.843 31.1721C126.842 29.6224 124.267 28.8367 121.193 28.8367C117.544 28.8367 114.495 29.9577 112.375 32.076C110.162 34.2901 108.99 37.5517 108.99 41.508C108.99 45.7347 110.228 49.3012 112.477 51.5482C114.243 53.3132 116.595 54.2443 119.287 54.2443C125.196 54.2443 126.555 50.7025 126.555 50.7025V53.6083H131.891V39.9768H121.269V44.2425H126.158C126.158 44.2425 126.205 49.613 121.159 49.613C119.877 49.613 118.735 49.1478 117.856 48.2693C116.487 46.9015 115.764 44.5963 115.764 41.6082C115.764 36.659 117.731 33.7043 121.025 33.7043C123.082 33.7043 124.629 34.9676 125.025 36.8823H131.821C131.469 34.1002 130.705 32.6501 128.843 31.1721Z" fill="#919EAB"/>
</g>
</svg>
