<svg width="161" height="83" viewBox="0 0 161 83" fill="none" xmlns="http://www.w3.org/2000/svg">
<mask id="mask0_177_576" style="mask-type:alpha" maskUnits="userSpaceOnUse" x="0" y="0" width="161" height="83">
<rect width="161" height="83" fill="#C4C4C4"/>
</mask>
<g mask="url(#mask0_177_576)">
</g>
<path d="M49 11H111V73H49V11Z" fill="white"/>
<path d="M90.9911 57.7689V35.1684C90.9911 30.0334 86.8294 25.87 81.6949 25.87H55.5627C55.3611 25.87 55.1981 26.0323 55.1981 26.2317V57.7688C55.1981 57.9682 55.3611 58.1297 55.5627 58.1297H62.5428C62.5906 58.1299 62.638 58.1206 62.6822 58.1024C62.7264 58.0842 62.7666 58.0574 62.8004 58.0237C62.8343 57.99 62.8612 57.9499 62.8796 57.9058C62.8979 57.8616 62.9074 57.8143 62.9075 57.7665V33.0137C62.9075 32.9659 62.917 32.9185 62.9353 32.8743C62.9537 32.8302 62.9806 32.79 63.0145 32.7562C63.0483 32.7224 63.0885 32.6957 63.1327 32.6774C63.177 32.6591 63.2243 32.6498 63.2722 32.6498H78.2824C81.1008 32.6498 83.3869 34.9345 83.3869 37.7536V57.7656C83.387 57.862 83.4253 57.9544 83.4934 58.0225C83.5615 58.0906 83.6539 58.1289 83.7502 58.129H90.6279C90.8279 58.129 90.9913 57.9669 90.9913 57.7678" fill="#919EAB"/>
<path d="M76.8953 57.7665C76.8955 57.8143 76.8861 57.8616 76.8679 57.9057C76.8497 57.9498 76.8229 57.9899 76.7892 58.0237C76.7554 58.0574 76.7153 58.0842 76.6712 58.1024C76.6271 58.1206 76.5798 58.1299 76.532 58.1298H69.5535C69.3519 58.1298 69.1888 57.9674 69.1888 57.7665V38.7984C69.1888 38.7506 69.1983 38.7032 69.2166 38.6591C69.235 38.6149 69.2619 38.5747 69.2957 38.541C69.3296 38.5072 69.3698 38.4804 69.414 38.4621C69.4582 38.4439 69.5056 38.4345 69.5535 38.4346H76.532C76.5798 38.4345 76.6271 38.4439 76.6712 38.4622C76.7154 38.4805 76.7555 38.5073 76.7892 38.5411C76.823 38.5749 76.8497 38.615 76.8679 38.6592C76.8861 38.7033 76.8955 38.7507 76.8953 38.7984V57.7673V57.7665Z" fill="#919EAB"/>
<path d="M104.802 57.7667C104.802 57.9675 104.638 58.1299 104.437 58.1299H97.4598C97.258 58.1299 97.0934 57.9675 97.0934 57.7667V26.235C97.0934 26.0333 97.258 25.8704 97.4598 25.8704H104.437C104.485 25.8703 104.532 25.8797 104.576 25.898C104.621 25.9163 104.661 25.9432 104.695 25.977C104.729 26.0109 104.756 26.0511 104.774 26.0954C104.792 26.1397 104.802 26.1871 104.802 26.235V57.7667Z" fill="#919EAB"/>
</svg>
