<svg width="161" height="83" viewBox="0 0 161 83" fill="none" xmlns="http://www.w3.org/2000/svg">
<mask id="mask0_177_584" style="mask-type:alpha" maskUnits="userSpaceOnUse" x="0" y="0" width="161" height="83">
<rect width="161" height="83" fill="#C4C4C4"/>
</mask>
<g mask="url(#mask0_177_584)">
</g>
<g clip-path="url(#clip0_177_584)">
<path d="M35.4635 38.8969C35.4635 41.5586 34.2223 43.3614 31.079 43.3614H30.0857V34.8843C30.4388 34.8636 30.7686 34.8636 31.079 34.8636C34.0553 34.8633 35.4635 36.3223 35.4635 38.8969ZM32.2369 47.0524C37.8613 47.0524 41.4174 44.0472 41.4174 38.812C41.4171 33.0597 37.6128 31 31.4098 31C29.0109 31 26.1161 31.1712 24.0489 31.4286V51.9464H30.086V47.0524H32.2369ZM113.125 38.8969C113.125 41.5586 111.885 43.3614 108.741 43.3614H107.751V34.8843C108.101 34.8636 108.431 34.8636 108.741 34.8636C111.717 34.8633 113.125 36.3223 113.125 38.8969ZM109.902 47.0524C115.521 47.0524 119.08 44.0472 119.08 38.812C119.08 33.0597 115.276 31 109.072 31C106.674 31 103.777 31.1712 101.71 31.4286V51.9464H107.75V47.0524H109.902ZM126.936 36.6649C126.936 35.5494 128.012 35.0336 129.747 35.0336C131.65 35.0336 133.719 35.4631 135.124 36.0663L134.629 31.6009C133.056 31.2575 131.65 31 129.087 31C124.207 31 120.9 32.9967 120.9 37.1816C120.9 44.3906 130.33 42.9325 130.33 46.2803C130.33 47.5667 129.419 48.2531 127.184 48.2531C125.202 48.2531 122.14 47.5667 120.321 46.6229L120.984 51.3458C122.802 52.0324 125.283 52.3747 127.269 52.3747C132.313 52.3747 136.449 50.6574 136.449 45.5059C136.449 38.6409 126.936 39.9273 126.936 36.6649ZM97.1628 31.4286H91.1257V51.9464H97.1628V31.4286ZM72.6807 31.4286H66.6431V51.9464H72.6807V31.4286ZM83.1845 47.8245V31.4286H77.1469V51.9464H88.0653L88.9742 47.8245H83.1845ZM62.1773 31.4286H56.1396V39.5838H49.8537V31.4286H43.8149V51.9464H49.8534V43.876H56.1393V51.9464H62.177L62.1773 31.4286Z" fill="#919EAB"/>
</g>
<defs>
<clipPath id="clip0_177_584">
<rect width="112.5" height="21.375" fill="white" transform="translate(24 31)"/>
</clipPath>
</defs>
</svg>
