<svg width="161" height="83" viewBox="0 0 161 83" fill="none" xmlns="http://www.w3.org/2000/svg">
<mask id="mask0_177_577" style="mask-type:alpha" maskUnits="userSpaceOnUse" x="0" y="0" width="161" height="83">
<rect width="161" height="83" fill="#C4C4C4"/>
</mask>
<g mask="url(#mask0_177_577)">
<path fill-rule="evenodd" clip-rule="evenodd" d="M86.7311 40.8277C86.7311 40.8277 85.4775 40.0525 84.7023 39.7526C84.7023 39.7526 82.3028 38.6405 81.8268 38.1114C81.8268 38.1114 80.8916 37.2301 81.4392 36.2064C81.4392 36.2064 81.6684 35.5366 82.6566 35.5366C82.6566 35.5366 83.9433 35.6073 83.9433 36.6648V38.1564H88.5541L88.5461 35.9595C88.5461 35.9595 88.9007 32.3619 83.115 32.2035C83.115 32.2035 78.5645 31.9043 77.2594 34.3553C77.2594 34.3553 76.7471 34.9021 76.7471 36.8063V38.1821C76.7471 38.1821 76.6949 39.7695 77.5054 40.7923C77.5054 40.7923 77.9638 41.463 79.0928 42.2028C79.0928 42.2028 81.3853 43.4371 82.7612 44.1439C82.7612 44.1439 84.1499 44.9368 83.9674 46.1985C83.9674 46.1985 83.854 47.4939 82.5127 47.4409C82.5127 47.4409 81.2864 47.3862 81.2864 46.1157V44.6248H76.3732V46.7903C76.3732 46.7903 76.2357 50.9316 82.5489 50.9316C82.5489 50.9316 88.5814 51.0538 88.8629 46.6818V44.9183C88.8621 44.9183 89.076 42.239 86.7311 40.8277ZM63.1252 32.7189L61.5813 42.3942H61.2203L59.7455 32.8058H52.0436L51.6576 50.3269H56.2178L56.2725 37.1255H56.6311L59.0483 50.3244H63.8457L66.2332 37.1304H66.5508L66.661 50.3269H71.2453L70.7516 32.7189H63.1252ZM35.9796 32.7921L32.9456 50.3068H37.8548L39.652 36.7267H40.0557L41.8521 50.3068H46.7605L43.7273 32.7921H35.9796ZM138.99 40.5865V43.1701H140.249V45.9436C140.249 47.2993 139.09 47.3243 139.09 47.3243C137.681 47.3243 137.734 46.036 137.734 46.036V36.4428C137.734 35.4546 138.985 35.4015 138.985 35.4015C140.185 35.4015 140.193 36.5803 140.193 36.5803V38.039H144.815C144.966 35.1916 144.398 34.5025 144.398 34.5025C143.252 31.9277 138.914 32.0684 138.914 32.0684C132.249 32.0684 132.988 37.1826 132.988 37.1826V46.4582C133.132 51.2548 139.7 50.7675 139.811 50.7635C142.732 50.4402 143.614 49.5115 143.614 49.5115C144.426 48.9084 144.635 48.0729 144.635 48.0729C144.868 47.5864 144.926 46.036 144.926 46.036V40.5865H138.99ZM123.669 43.4371H123.468L118.777 32.7237H113.165V50.3285H117.733L117.459 39.6167H117.663L122.523 50.3285H127.964V32.7221H123.339L123.669 43.4371ZM102.016 45.942C102.016 45.942 102.082 47.387 100.742 47.387C100.742 47.387 99.3334 47.4626 99.3334 45.9781L99.3189 32.7342H94.3092V45.8728C94.3092 45.8728 93.7954 50.8455 100.813 50.8455C100.813 50.8455 106.911 50.9179 106.911 46.1012V32.735H102.016V45.942ZM26.429 40.8277C26.429 40.8277 25.177 40.0525 24.401 39.7534C24.401 39.7534 22.0031 38.6421 21.527 38.1122C21.527 38.1122 20.5918 37.2293 21.1403 36.208C21.1403 36.208 21.3686 35.5382 22.3561 35.5382C22.3561 35.5382 23.6435 35.6081 23.6435 36.6656V38.1572H28.256L28.2471 35.9595C28.2471 35.9595 28.5993 32.3619 22.816 32.2043C22.816 32.2043 22.3802 32.1761 21.7409 32.2083C21.7409 32.2083 18.2374 32.3965 16.9845 34.3183C16.9773 34.3328 16.9668 34.3433 16.9596 34.3561C16.9596 34.3561 16.4482 34.9021 16.4482 36.8071V38.183C16.4482 38.183 16.3951 39.7703 17.2065 40.7931C17.2065 40.7931 17.6648 41.4638 18.7938 42.2036C18.7938 42.2036 21.0856 43.4379 22.4614 44.1447C22.4614 44.1447 23.8518 44.936 23.6676 46.1993C23.6676 46.1993 23.5542 47.4947 22.2138 47.4417C22.2138 47.4417 20.9875 47.387 20.9875 46.1165V44.6248H16.0735V46.7919C16.0735 46.7919 15.936 50.9332 22.2491 50.9332C22.2491 50.9332 28.2801 51.0554 28.5639 46.6834V44.9215C28.5639 44.9199 28.7746 42.239 26.429 40.8277Z" fill="#919EAB"/>
</g>
</svg>
