<svg width="161" height="83" viewBox="0 0 161 83" fill="none" xmlns="http://www.w3.org/2000/svg">
<mask id="mask0_177_579" style="mask-type:alpha" maskUnits="userSpaceOnUse" x="0" y="0" width="161" height="83">
<rect width="161" height="83" fill="#C4C4C4"/>
</mask>
<g mask="url(#mask0_177_579)">
<path fill-rule="evenodd" clip-rule="evenodd" d="M32.2082 32.4638V36.0518C30.5018 35.455 28.6333 35.1065 27.1436 35.1065C25.3048 35.1065 24.2815 35.6668 24.2815 36.6735C24.2815 37.3159 24.7293 37.7416 26.0141 38.3191L29.4696 39.8695C32.2337 41.1115 33.6268 42.9234 33.6268 45.2777C33.6268 48.9112 30.4818 51.2033 25.4966 51.2033C23.6785 51.2033 21.5754 50.9432 19.3474 50.4395V46.7308C21.5561 47.3318 23.5791 47.6526 25.153 47.6526C27.214 47.6526 28.318 47.0786 28.318 46.0084C28.318 45.3653 27.8867 44.8927 26.8994 44.4518L23.1175 42.7675C20.3141 41.5172 19.0204 39.833 19.0204 37.4318C19.0204 33.9908 22.0515 31.7966 26.8069 31.7966C28.4719 31.7966 30.5211 32.0499 32.2082 32.4638ZM36.3178 32.1727H41.906V50.8273H36.3178V32.1727ZM60.0756 32.1727V35.5902H51.639V39.7978H59.0088V42.8889H51.639V47.2511H60.1846V50.8273H46.2088V32.1727H60.0756ZM86.476 32.1727V50.8273H81.0692V38.5489L75.7729 50.9729H72.3546L67.0941 38.5489V50.8273H63.3606V32.1727H70.1846L75.009 43.5196L79.8086 32.1727H86.476ZM104.66 32.1727V35.5902H96.2111V39.7978H103.579V42.8889H96.2111V47.2511H104.755V50.8273H90.7671V32.1727H104.66ZM124.343 32.1727V50.8273H118.38L111.665 38.8628V50.8273H107.931V32.1727H114.052L120.622 43.9791V32.1727H124.343ZM140.561 32.4638V36.0518C138.867 35.4591 136.987 35.1065 135.525 35.1065C133.657 35.1065 132.634 35.6578 132.634 36.668C132.634 37.3262 133.052 37.7195 134.381 38.3198L137.821 39.8702C140.605 41.1253 141.981 42.9214 141.981 45.3032C141.981 48.9174 138.833 51.2047 133.859 51.2047C132.038 51.2047 129.927 50.9432 127.702 50.4409V46.7322C129.908 47.3318 131.926 47.654 133.49 47.654C135.537 47.654 136.672 47.08 136.672 46.0436C136.672 45.3577 136.274 44.9154 135.239 44.4532L131.472 42.7689C128.652 41.509 127.373 39.844 127.373 37.4339C127.373 33.9949 130.406 31.7994 135.15 31.7994C136.82 31.7973 138.877 32.0499 140.561 32.4638Z" fill="#919EAB"/>
</g>
</svg>
