<svg width="161" height="83" viewBox="0 0 161 83" fill="none" xmlns="http://www.w3.org/2000/svg">
<mask id="mask0_177_578" style="mask-type:alpha" maskUnits="userSpaceOnUse" x="0" y="0" width="161" height="83">
<rect width="161" height="83" fill="#C4C4C4"/>
</mask>
<g mask="url(#mask0_177_578)">
<path fill-rule="evenodd" clip-rule="evenodd" d="M130.86 46.5381C130.652 46.5342 130.445 46.5719 130.251 46.6489C130.057 46.726 129.881 46.8409 129.732 46.9869C129.584 47.1329 129.465 47.3071 129.385 47.4993C129.304 47.6915 129.263 47.8979 129.263 48.1063C129.263 48.3148 129.304 48.5211 129.385 48.7133C129.465 48.9055 129.584 49.0797 129.732 49.2257C129.881 49.3717 130.057 49.4866 130.251 49.5637C130.445 49.6407 130.652 49.6784 130.86 49.6745C131.066 49.6743 131.27 49.6334 131.46 49.5543C131.651 49.4751 131.823 49.3592 131.969 49.2132C132.114 49.0672 132.229 48.8939 132.307 48.7034C132.385 48.5128 132.425 48.3087 132.424 48.1027C132.424 47.8973 132.384 47.6938 132.305 47.504C132.227 47.3142 132.112 47.1417 131.966 46.9964C131.821 46.8511 131.649 46.7359 131.459 46.6572C131.269 46.5786 131.066 46.5381 130.86 46.5381ZM130.86 49.4859C130.679 49.4861 130.499 49.4504 130.331 49.3809C130.164 49.3115 130.011 49.2095 129.883 49.081C129.755 48.9525 129.654 48.7999 129.585 48.632C129.515 48.4641 129.48 48.2842 129.481 48.1027C129.481 47.9218 129.517 47.7427 129.586 47.5756C129.656 47.4085 129.757 47.2567 129.885 47.129C130.014 47.0012 130.166 46.9 130.333 46.831C130.5 46.7621 130.679 46.7269 130.86 46.7273C131.041 46.7273 131.22 46.7629 131.387 46.832C131.553 46.9011 131.705 47.0025 131.833 47.1302C131.96 47.2579 132.062 47.4095 132.131 47.5764C132.2 47.7433 132.235 47.9221 132.235 48.1027C132.236 48.2839 132.201 48.4635 132.132 48.6312C132.064 48.7988 131.963 48.9513 131.835 49.0798C131.707 49.2083 131.555 49.3103 131.388 49.38C131.221 49.4497 131.042 49.4856 130.86 49.4859Z" fill="#919EAB"/>
<path fill-rule="evenodd" clip-rule="evenodd" d="M131.665 47.6919C131.665 47.5439 131.599 47.3883 131.469 47.314C131.337 47.236 131.189 47.2283 131.041 47.2283H130.277V48.981H130.491V48.1725H130.886L131.386 48.981H131.641L131.111 48.1725C131.423 48.1637 131.665 48.0367 131.665 47.6919ZM130.82 48.0037H130.491V47.3839H130.991C131.209 47.3839 131.448 47.4169 131.448 47.688C131.448 48.0449 131.065 48.0037 130.82 48.0037ZM121.668 39.2182L124.874 35.7947C125.06 35.5434 125.152 35.3674 125.152 35.2167C125.152 34.9654 124.936 34.8648 124.257 34.8648H123.448V32.7035H132.204V34.8648H131.053C129.725 34.8648 129.478 35.0655 127.624 37.4028L122.552 42.8803V46.2229C122.552 47.0781 122.983 47.3789 124.22 47.3789H126.135V49.4644H113.87V47.3789H115.785C117.02 47.3789 117.453 47.0781 117.453 46.2229V42.8803L111.479 36.2715C110.492 35.1161 110.628 34.8648 107.879 34.8648V32.7035H118.971V34.8648H118.181C117.378 34.8648 117.037 35.0155 117.037 35.3168C117.037 35.5687 117.284 35.7694 117.439 35.9702L120.461 39.2644C120.82 39.6378 121.259 39.6862 121.668 39.2182ZM47.25 32.7029H49.9255V38.7337H47.4546C47.2357 37.5282 46.4812 37.0591 45.7932 36.4266C44.5519 35.286 41.8638 34.3363 39.6029 34.3363C36.6849 34.3363 34.2222 35.2415 34.2222 36.5724C34.2222 40.267 50.9105 37.3269 50.9105 44.3124C50.9105 47.9558 47.3358 49.9912 40.9162 49.9912C38.6938 49.9912 35.3309 49.3016 33.3466 48.2479C32.7246 47.8888 32.4607 48.5877 32.3441 49.4638H29.6009V43.2317H32.0823C32.6295 44.8151 33.3835 45.1412 34.077 45.7698C35.2803 46.8757 38.1444 47.6803 40.771 47.6545C44.7312 47.6154 46.0929 46.7498 46.0929 45.4932C46.0929 44.2371 44.7461 43.9351 40.4064 43.257L36.7217 42.6537C32.5635 42.0252 29.536 41.0957 29.536 37.779C29.536 34.3363 33.3659 32.1749 39.4214 32.1749C41.9732 32.1749 44.1081 32.5159 46.1572 33.6741C46.7248 34.0431 47.2571 34.0871 47.25 32.7029ZM99.4647 42.8L99.5174 36.0972C99.5174 35.2178 99.0599 34.9165 97.7527 34.9165H96.2166V32.831H105.989V34.9165H104.716C103.407 34.9165 102.95 35.2184 102.95 36.0972V49.5914L99.1248 49.5612L86.7377 37.8312V46.35C86.7377 47.2046 87.1952 47.5307 88.5025 47.5307H90.2029V49.5914H80.0535V47.5307H81.7353C83.0425 47.5307 83.5001 47.2041 83.5001 46.35V36.0972C83.5001 35.2178 83.0425 34.9165 81.7353 34.9165H80.0535V32.831H88.8286L99.4647 42.8ZM66.7299 32.0485C58.9414 32.0485 54.0661 35.4917 54.0661 41.0193C54.0661 46.4479 58.8738 49.8647 66.4923 49.8647C74.5843 49.8647 79.2913 46.4979 79.2913 40.7432C79.2919 35.5671 74.2125 32.0485 66.7299 32.0485ZM66.5528 47.6792C62.2417 47.6792 59.7636 45.1912 59.7636 40.8939C59.7636 36.6978 62.3495 34.2098 66.7683 34.2098C71.0074 34.2098 73.4855 36.7484 73.4855 41.0704C73.4855 45.2919 70.9711 47.6792 66.5528 47.6792Z" fill="#919EAB"/>
</g>
</svg>
