<svg width="161" height="83" viewBox="0 0 161 83" fill="none" xmlns="http://www.w3.org/2000/svg">
<mask id="mask0_177_586" style="mask-type:alpha" maskUnits="userSpaceOnUse" x="0" y="0" width="161" height="83">
<rect width="161" height="83" fill="#C4C4C4"/>
</mask>
<g mask="url(#mask0_177_586)">
<path fill-rule="evenodd" clip-rule="evenodd" d="M47.4332 29.2897H34.6531V33.4363H41.6324L34.1996 48.5656V53.3138H47.4366V49.027H39.9499L47.4366 33.4368L47.4332 29.2897ZM57.0839 48.9019L57.6937 53.3133H62.9689L58.4615 29.2897H51.8808C50.4032 37.2983 48.9218 45.3061 47.4366 53.3133H52.6735L53.3055 48.9019H57.0839ZM53.7952 44.8794L55.167 35.2145L56.572 44.8794H53.7952ZM77.2883 29.2897L77.2854 53.3133H71.4621L68.0298 40.2278V53.3167L62.9694 53.3133L62.9738 29.2897H68.674L72.3917 42.7321L72.3961 29.2897H77.2883ZM90.336 52.1381C90.538 51.9553 90.7337 51.7474 90.9048 51.5214C91.0758 51.2954 91.2244 51.0512 91.345 50.7948C91.4657 50.5377 91.5603 50.2692 91.6274 49.9932C91.7992 49.198 91.8988 48.3889 91.925 47.5758L91.9554 46.8262V29.2897H86.7454L86.7474 46.8262C86.7382 47.2141 86.7145 47.6015 86.6763 47.9876C86.6631 48.1014 86.6439 48.2145 86.6189 48.3264C86.5974 48.432 86.5709 48.5365 86.5395 48.6396C86.466 48.874 86.3797 49.0534 86.1698 49.2334C85.9983 49.3721 85.7497 49.4991 85.5247 49.5378C85.2776 49.5839 85.0123 49.5716 84.7481 49.5329C84.6159 49.5022 84.4885 49.4539 84.3691 49.3893C84.2524 49.3273 84.1463 49.247 84.0549 49.1515C83.8882 48.9593 83.8088 48.7446 83.7416 48.5338C83.7063 48.4051 83.6807 48.274 83.6651 48.1415C83.6411 47.9709 83.6161 47.743 83.598 47.514C83.5911 47.2846 83.5837 47.0551 83.5818 44.018C83.5798 40.9804 83.5837 35.1355 83.5867 29.2897H78.4498L78.4463 46.8262C78.4787 48.092 78.4684 49.3481 79.0866 50.6566C79.3107 51.1081 79.6085 51.5192 79.9676 51.8729C80.4051 52.3047 80.9075 52.6655 81.4565 52.9421C81.7355 53.0828 82.0252 53.203 82.5003 53.3358C82.9753 53.4687 83.6337 53.6128 84.3025 53.6859C84.9697 53.7584 85.6458 53.7589 86.3145 53.6868C86.9827 53.6153 87.6416 53.4697 88.0926 53.3471C88.5437 53.2245 88.7868 53.1245 89.0222 53.0098C89.2575 52.8951 89.4874 52.7666 89.7061 52.6225C89.9242 52.4793 90.1341 52.3215 90.336 52.1381ZM94.439 30.2736C94.2429 30.4374 94.0071 30.657 93.7963 30.8982C93.5845 31.1399 93.3997 31.4042 93.2418 31.6831C93.0839 31.9621 92.9545 32.2572 92.8481 32.5685C92.5246 33.5285 92.4192 34.5511 92.5054 35.5449C92.5579 36.2053 92.6942 36.8887 92.9467 37.5515C93.0683 37.8731 93.2129 38.1864 93.41 38.5227C93.6061 38.8595 93.8541 39.2189 94.1203 39.5655C94.643 40.2528 95.2357 40.8637 95.9274 41.4829C96.2672 41.7903 96.6285 42.107 96.9932 42.4203C97.357 42.7335 97.7247 43.0434 98.0723 43.3356C98.4209 43.6278 98.7503 43.9023 99.0661 44.1915C99.3824 44.481 99.6865 44.7836 99.9774 45.0985C100.061 45.1971 100.139 45.2995 100.215 45.4049C100.289 45.5103 100.361 45.6187 100.459 45.8079C100.556 45.9972 100.68 46.2683 100.772 46.5497C100.865 46.8311 100.926 47.1228 100.959 47.4179C100.99 47.7136 100.992 48.0116 100.971 48.2425C100.949 48.4735 100.905 48.6362 100.835 48.7872C100.765 48.9392 100.671 49.0784 100.556 49.2005C100.441 49.3211 100.306 49.4241 100.138 49.5064C99.8029 49.6707 99.3529 49.7427 98.9489 49.6545C98.7587 49.6129 98.5751 49.5455 98.4032 49.454C98.1574 49.3247 97.9562 49.1245 97.8257 48.8794C97.5865 48.3676 97.5355 47.7871 97.5281 47.2282V45.0225H92.2941C92.2941 45.7648 92.2922 46.5065 92.2951 47.2488C92.2961 47.3846 92.2971 47.5219 92.303 47.7268C92.3128 48.1465 92.3574 48.7612 92.479 49.2883C92.5383 49.5555 92.6113 49.8202 92.6971 50.0697C92.7824 50.3193 92.882 50.5536 93.0006 50.7777C93.1192 51.0027 93.259 51.2169 93.4144 51.4174C93.5703 51.618 93.7428 51.8057 93.9296 51.9778C94.1927 52.2044 94.4735 52.4095 94.7694 52.5911C95.6455 53.1417 96.6741 53.4187 97.6154 53.5746C98.8744 53.7746 100.131 53.8128 101.409 53.5765C101.708 53.5213 102.004 53.4509 102.296 53.3657C102.559 53.2863 102.774 53.2025 102.983 53.1064C103.193 53.0098 103.397 52.9015 103.594 52.7823C103.792 52.6632 103.984 52.5338 104.255 52.2984C104.526 52.0631 104.875 51.7214 105.164 51.3336C105.453 50.9458 105.682 50.5114 105.846 50.054C106.009 49.5961 106.106 49.1162 106.136 48.6308C106.21 47.8265 106.194 47.0166 106.089 46.2158C106.033 45.78 105.933 45.3512 105.789 44.9363C105.712 44.7109 105.621 44.4908 105.516 44.2773C105.214 43.6608 104.85 43.0767 104.429 42.5345C104.21 42.255 103.976 41.9878 103.629 41.627C103.283 41.2662 102.825 40.8107 102.357 40.3661C101.47 39.5189 100.535 38.7247 99.6171 37.9148C99.1347 37.4824 98.6729 37.0127 98.314 36.5377C98.2038 36.3979 98.1037 36.2504 98.0145 36.0964C97.8027 35.7336 97.6389 35.2576 97.6198 34.8178C97.6075 34.6027 97.6175 34.3868 97.6497 34.1736C97.6796 33.9918 97.7208 33.8599 97.7821 33.7378C97.8434 33.6147 97.9247 33.503 98.0223 33.4064C98.1189 33.3098 98.2312 33.2294 98.3611 33.1627C98.7818 32.9518 99.2642 32.8991 99.7206 33.0142C99.8774 33.0559 100.036 33.1215 100.176 33.2167C100.457 33.3971 100.636 33.7295 100.714 34.0192C100.812 34.3773 100.864 34.7465 100.869 35.1179V37.0112H105.828C105.827 36.6162 105.821 36.2212 105.81 35.8263C105.8 35.4543 105.786 35.0825 105.766 34.711C105.736 34.0815 105.682 33.6432 105.573 33.1245C105.476 32.644 105.322 32.1337 105.035 31.6361C104.899 31.3975 104.738 31.1735 104.555 30.9679C104.234 30.6092 103.861 30.2995 103.449 30.0486C103.273 29.9398 103.094 29.8378 102.91 29.7422C102.727 29.6461 102.541 29.5559 102.098 29.4103C101.658 29.2647 100.961 29.0632 100.248 28.9578C99.5339 28.8523 98.8093 28.8422 98.0929 28.9279C97.3786 29.0137 96.6756 29.1956 96.2373 29.326C95.7985 29.4564 95.6245 29.5358 95.4529 29.6216C95.2823 29.7074 95.1156 29.8006 94.9538 29.9015C94.773 30.0123 94.6009 30.1367 94.439 30.2736ZM106.659 46.838C106.658 47.6474 106.656 48.4676 106.844 49.2868C106.902 49.554 106.975 49.8187 107.061 50.0683C107.147 50.3178 107.247 50.5521 107.366 50.7762C107.484 51.0012 107.623 51.2155 107.779 51.416C107.936 51.6165 108.107 51.8043 108.295 51.9763C108.558 52.203 108.839 52.4081 109.134 52.5896C110.01 53.1402 111.038 53.4172 111.979 53.5731C113.239 53.7731 114.495 53.8114 115.773 53.5751C116.072 53.5198 116.369 53.4495 116.661 53.3643C116.923 53.2848 117.139 53.201 117.348 53.1049C117.558 53.0083 117.761 52.9 117.959 52.7808C118.157 52.6617 118.349 52.5323 118.62 52.297C118.89 52.0616 119.24 51.7199 119.529 51.3321C119.818 50.9443 120.047 50.51 120.203 50.0526C120.359 49.5952 120.442 49.1142 120.488 48.7367C120.535 48.3602 120.545 48.0876 120.547 47.815C120.549 47.5425 120.542 47.2699 120.527 46.9978C120.511 46.7357 120.486 46.4742 120.452 46.2139C120.398 45.778 120.298 45.3491 120.153 44.9343C120.077 44.7089 119.985 44.4888 119.879 44.2754C119.578 43.6586 119.214 43.0745 118.793 42.5325C118.542 42.2163 118.276 41.9134 117.994 41.6251C117.579 41.1954 117.154 40.775 116.72 40.3641C115.834 39.5169 114.9 38.7227 113.981 37.9128C113.36 37.3569 112.775 36.7328 112.393 36.1229C112.029 35.525 111.897 34.8143 112.023 34.1256C112.043 33.9903 112.084 33.8579 112.146 33.7358C112.207 33.6128 112.289 33.501 112.385 33.4044C112.485 33.3062 112.6 33.224 112.725 33.1608C113.146 32.9499 113.628 32.8971 114.085 33.0122C114.241 33.0539 114.4 33.1196 114.54 33.2147C114.821 33.3951 115 33.7275 115.077 34.0172C115.188 34.4198 115.223 34.7487 115.233 35.1159V37.0093H120.191C120.19 36.6141 120.184 36.2189 120.174 35.8238C120.164 35.4521 120.15 35.0804 120.13 34.709C120.099 34.0785 120.046 33.6412 119.937 33.1225C119.839 32.6421 119.686 32.1317 119.399 31.6341C119.262 31.3957 119.102 31.1718 118.92 30.9659C118.597 30.6072 118.224 30.2975 117.813 30.0467C117.637 29.9378 117.457 29.8358 117.274 29.7402C117.09 29.6442 116.905 29.554 116.463 29.4083C116.021 29.2627 115.324 29.0612 114.613 28.9558C113.899 28.8503 113.174 28.8403 112.457 28.9259C111.742 29.0117 111.04 29.1936 110.602 29.324C110.163 29.4544 109.989 29.5339 109.817 29.6196C109.647 29.7055 109.48 29.7989 109.317 29.8996C109.156 30.0011 108.999 30.1099 108.803 30.2741C108.606 30.4379 108.37 30.6575 108.159 30.8987C107.948 31.1404 107.763 31.4047 107.605 31.6836C107.447 31.9626 107.318 32.2577 107.212 32.569C106.888 33.529 106.783 34.5516 106.868 35.5454C106.92 36.2058 107.058 36.8892 107.31 37.552C107.432 37.8736 107.576 38.1869 107.773 38.5232C107.97 38.86 108.219 39.2194 108.483 39.566C109.007 40.2533 109.598 40.8642 110.29 41.4834C110.63 41.7908 110.992 42.1075 111.356 42.4207C111.72 42.734 112.088 43.0439 112.436 43.3361C112.783 43.6282 113.114 43.9028 113.429 44.1925C113.745 44.4818 114.047 44.7862 114.237 44.9902C114.427 45.1941 114.504 45.2985 114.578 45.4044C114.654 45.5108 114.725 45.6192 114.821 45.8084C114.919 45.9981 115.042 46.2688 115.135 46.5502C115.313 47.0955 115.381 47.6711 115.334 48.243C115.313 48.4739 115.269 48.6367 115.199 48.7877C115.058 49.0935 114.819 49.3436 114.52 49.4986C114.146 49.6832 113.721 49.738 113.312 49.6545C113.122 49.6128 112.938 49.5453 112.766 49.454C112.638 49.3873 112.522 49.3004 112.422 49.1966C112.33 49.1022 112.251 48.9954 112.189 48.8794C111.95 48.3676 111.9 47.7871 111.892 47.2282V45.0225H106.658V46.838H106.659ZM126.249 29.2873H121.094V53.3138H126.249V29.2873Z" fill="#919EAB"/>
</g>
</svg>
