<svg width="6" height="9" viewBox="0 0 6 9" fill="none" xmlns="http://www.w3.org/2000/svg">
<path fill-rule="evenodd" clip-rule="evenodd" d="M1.13595 0.400011C0.825776 0.712041 0.825776 1.21598 1.13595 1.52801L3.96796 4.40001L1.13595 7.23201C0.825776 7.54404 0.825776 8.04798 1.13595 8.36001C1.28617 8.51146 1.49064 8.59665 1.70395 8.59665C1.91726 8.59665 2.12174 8.51146 2.27195 8.36001L5.66396 4.96801C5.81541 4.8178 5.90059 4.61332 5.90059 4.40001C5.90059 4.1867 5.81541 3.98222 5.66396 3.83201L2.27195 0.400011C2.12174 0.24856 1.91726 0.163372 1.70395 0.163372C1.49064 0.163372 1.28617 0.24856 1.13595 0.400011V0.400011Z" fill="#212B36"/>
</svg>
