<svg width="160" height="33" viewBox="0 0 160 33" fill="none" xmlns="http://www.w3.org/2000/svg">
<path d="M61.3692 26C61.2154 26 61.0846 25.9538 60.9769 25.8615C60.8846 25.7538 60.8385 25.6231 60.8385 25.4692V12.5462L57.0077 15.5C56.9 15.5923 56.7846 15.6385 56.6615 15.6385C56.5231 15.6385 56.3923 15.5615 56.2692 15.4077L55.6692 14.6462C55.5923 14.5385 55.5538 14.4308 55.5538 14.3231C55.5538 14.1385 55.6308 13.9923 55.7846 13.8846L60.8154 10.0077C60.9846 9.9 61.1846 9.84615 61.4154 9.84615H62.5923C62.7462 9.84615 62.8692 9.9 62.9615 10.0077C63.0692 10.1 63.1231 10.2231 63.1231 10.3769V25.4692C63.1231 25.6231 63.0692 25.7538 62.9615 25.8615C62.8692 25.9538 62.7462 26 62.5923 26H61.3692ZM72.1862 26.2308C70.2016 26.2308 68.7477 25.6538 67.8246 24.5C66.9016 23.3462 66.4093 21.8308 66.3477 19.9538C66.3323 19.5385 66.3246 18.8692 66.3246 17.9462C66.3246 16.9923 66.3323 16.3 66.3477 15.8692C66.3939 14.0231 66.8862 12.5231 67.8246 11.3692C68.7631 10.2 70.2169 9.61538 72.1862 9.61538C74.1708 9.61538 75.6323 10.2 76.5708 11.3692C77.5093 12.5231 78.0016 14.0231 78.0477 15.8692C78.0785 16.7308 78.0939 17.4231 78.0939 17.9462C78.0939 18.4538 78.0785 19.1231 78.0477 19.9538C77.9862 21.8308 77.4939 23.3462 76.5708 24.5C75.6477 25.6538 74.1862 26.2308 72.1862 26.2308ZM72.1862 24.2462C73.34 24.2462 74.2093 23.8615 74.7939 23.0923C75.3939 22.3231 75.7093 21.2385 75.74 19.8385C75.7708 18.9462 75.7862 18.3 75.7862 17.9C75.7862 17.4692 75.7708 16.8385 75.74 16.0077C75.7093 14.6231 75.4016 13.5385 74.8169 12.7538C74.2323 11.9692 73.3554 11.5769 72.1862 11.5769C71.0323 11.5769 70.1554 11.9692 69.5554 12.7538C68.9708 13.5385 68.6631 14.6231 68.6323 16.0077L68.6093 17.9L68.6323 19.8385C68.6631 21.2385 68.9708 22.3231 69.5554 23.0923C70.1554 23.8615 71.0323 24.2462 72.1862 24.2462ZM86.8346 26.2308C84.85 26.2308 83.3962 25.6538 82.4731 24.5C81.55 23.3462 81.0577 21.8308 80.9962 19.9538C80.9808 19.5385 80.9731 18.8692 80.9731 17.9462C80.9731 16.9923 80.9808 16.3 80.9962 15.8692C81.0423 14.0231 81.5346 12.5231 82.4731 11.3692C83.4115 10.2 84.8654 9.61538 86.8346 9.61538C88.8192 9.61538 90.2808 10.2 91.2192 11.3692C92.1577 12.5231 92.65 14.0231 92.6962 15.8692C92.7269 16.7308 92.7423 17.4231 92.7423 17.9462C92.7423 18.4538 92.7269 19.1231 92.6962 19.9538C92.6346 21.8308 92.1423 23.3462 91.2192 24.5C90.2962 25.6538 88.8346 26.2308 86.8346 26.2308ZM86.8346 24.2462C87.9885 24.2462 88.8577 23.8615 89.4423 23.0923C90.0423 22.3231 90.3577 21.2385 90.3885 19.8385C90.4192 18.9462 90.4346 18.3 90.4346 17.9C90.4346 17.4692 90.4192 16.8385 90.3885 16.0077C90.3577 14.6231 90.05 13.5385 89.4654 12.7538C88.8808 11.9692 88.0038 11.5769 86.8346 11.5769C85.6808 11.5769 84.8038 11.9692 84.2038 12.7538C83.6192 13.5385 83.3115 14.6231 83.2808 16.0077L83.2577 17.9L83.2808 19.8385C83.3115 21.2385 83.6192 22.3231 84.2038 23.0923C84.8038 23.8615 85.6808 24.2462 86.8346 24.2462ZM96.7061 26C96.5523 26 96.4215 25.9538 96.3138 25.8615C96.2215 25.7538 96.1754 25.6231 96.1754 25.4692V10.4C96.1754 10.2308 96.2215 10.1 96.3138 10.0077C96.4215 9.9 96.5523 9.84615 96.7061 9.84615H97.7677C98.0446 9.84615 98.2369 9.95384 98.3446 10.1692L106.006 21.9385V10.4C106.006 10.2308 106.052 10.1 106.145 10.0077C106.252 9.9 106.383 9.84615 106.537 9.84615H107.645C107.814 9.84615 107.945 9.9 108.037 10.0077C108.145 10.1 108.198 10.2308 108.198 10.4V25.4462C108.198 25.6 108.145 25.7308 108.037 25.8385C107.945 25.9462 107.822 26 107.668 26H106.56C106.329 26 106.145 25.8923 106.006 25.6769L98.3677 14.0231V25.4692C98.3677 25.6231 98.3138 25.7538 98.2061 25.8615C98.0984 25.9538 97.9677 26 97.8138 26H96.7061ZM118.036 26.2308C116.021 26.2308 114.459 25.7077 113.352 24.6615C112.259 23.6 111.683 22.0077 111.621 19.8846C111.606 19.4231 111.598 18.7692 111.598 17.9231C111.598 17.0769 111.606 16.4308 111.621 15.9846C111.683 13.9077 112.283 12.3308 113.421 11.2538C114.559 10.1615 116.098 9.61538 118.036 9.61538C119.959 9.61538 121.49 10.1615 122.629 11.2538C123.767 12.3308 124.367 13.9077 124.429 15.9846C124.459 16.8769 124.475 17.5231 124.475 17.9231C124.475 18.3077 124.459 18.9615 124.429 19.8846C124.367 22.0077 123.783 23.6 122.675 24.6615C121.583 25.7077 120.036 26.2308 118.036 26.2308ZM118.036 24.2692C119.252 24.2692 120.221 23.9 120.944 23.1615C121.667 22.4231 122.059 21.2923 122.121 19.7692C122.152 18.8462 122.167 18.2308 122.167 17.9231C122.167 17.5846 122.152 16.9692 122.121 16.0769C122.059 14.5538 121.659 13.4231 120.921 12.6846C120.198 11.9462 119.236 11.5769 118.036 11.5769C116.821 11.5769 115.844 11.9462 115.106 12.6846C114.383 13.4231 113.99 14.5538 113.929 16.0769C113.913 16.5231 113.906 17.1385 113.906 17.9231C113.906 18.6923 113.913 19.3077 113.929 19.7692C113.99 21.2923 114.383 22.4231 115.106 23.1615C115.844 23.9 116.821 24.2692 118.036 24.2692ZM133.931 26.2308C131.946 26.2308 130.408 25.7 129.315 24.6385C128.239 23.5615 127.7 21.9385 127.7 19.7692V10.4C127.7 10.2308 127.746 10.1 127.839 10.0077C127.946 9.9 128.077 9.84615 128.231 9.84615H129.408C129.577 9.84615 129.708 9.9 129.8 10.0077C129.908 10.1 129.962 10.2308 129.962 10.4V19.8154C129.962 21.2923 130.308 22.4 131 23.1385C131.692 23.8769 132.669 24.2462 133.931 24.2462C135.192 24.2462 136.169 23.8769 136.862 23.1385C137.554 22.4 137.9 21.2923 137.9 19.8154V10.4C137.9 10.2308 137.946 10.1 138.039 10.0077C138.146 9.9 138.277 9.84615 138.431 9.84615H139.631C139.785 9.84615 139.908 9.9 140 10.0077C140.108 10.1154 140.162 10.2462 140.162 10.4V19.7692C140.162 21.9385 139.615 23.5615 138.523 24.6385C137.446 25.7 135.915 26.2308 133.931 26.2308ZM148.081 26C147.927 26 147.796 25.9538 147.689 25.8615C147.596 25.7538 147.55 25.6231 147.55 25.4692V11.9H143.119C142.966 11.9 142.835 11.8538 142.727 11.7615C142.635 11.6538 142.589 11.5231 142.589 11.3692V10.4C142.589 10.2462 142.635 10.1154 142.727 10.0077C142.835 9.9 142.966 9.84615 143.119 9.84615H154.242C154.412 9.84615 154.542 9.9 154.635 10.0077C154.742 10.1 154.796 10.2308 154.796 10.4V11.3692C154.796 11.5231 154.742 11.6538 154.635 11.7615C154.527 11.8538 154.396 11.9 154.242 11.9H149.835V25.4692C149.835 25.6231 149.781 25.7538 149.673 25.8615C149.566 25.9538 149.435 26 149.281 26H148.081Z" fill="#454F5B"/>
<rect y="11.113" width="15.7162" height="15.7162" rx="0.769231" transform="rotate(-45 0 11.113)" fill="#58B741"/>
<rect x="24.697" y="11.113" width="15.7162" height="15.7162" rx="0.769231" transform="rotate(-45 24.697 11.113)" fill="#398025"/>
<rect x="14.2195" y="23.7449" width="12.7227" height="12.7227" rx="0.769231" transform="rotate(-45 14.2195 23.7449)" fill="#67D34D"/>
</svg>
