<svg width="92" height="92" viewBox="0 0 92 92" fill="none" xmlns="http://www.w3.org/2000/svg">
<path fill-rule="evenodd" clip-rule="evenodd" d="M24.3119 56.3845C25.9522 57.2013 27.6793 57.8255 29.4649 58.2454C29.4477 57.8457 29.4391 57.4439 29.4391 57.04C29.4391 41.7969 41.796 29.44 57.0391 29.44C57.4436 29.44 57.8461 29.4487 58.2464 29.4659C55.7638 18.9034 46.2804 11.04 34.9604 11.04C21.7497 11.04 11.0404 21.7493 11.0404 34.96C11.0404 38.7057 11.9035 42.3305 13.5358 45.6084L11.0842 56.6409C10.792 57.9555 11.9648 59.1283 13.2795 58.8362L24.3119 56.3845ZM78.4636 67.6884L80.9152 78.7208C81.2074 80.0355 80.0346 81.2083 78.7199 80.9162L67.6875 78.4645C64.4095 80.0968 60.7847 80.96 57.0391 80.96C43.8284 80.96 33.1191 70.2507 33.1191 57.04C33.1191 43.8294 43.8284 33.12 57.0391 33.12C70.2497 33.12 80.9591 43.8294 80.9591 57.04C80.9591 60.7857 80.0959 64.4105 78.4636 67.6884Z" fill="#C4CDD5"/>
</svg>
