<svg width="81" height="81" viewBox="0 0 81 81" fill="none" xmlns="http://www.w3.org/2000/svg">
<path fill-rule="evenodd" clip-rule="evenodd" d="M17.8205 32.4H16.2005C11.9315 32.4 8.4707 28.9392 8.4707 24.6702C8.4707 23.9519 8.5708 23.2372 8.76812 22.5466L12.3515 10.0049C12.9476 7.91845 14.8546 6.48 17.0245 6.48H63.9766C66.1465 6.48 68.0535 7.91845 68.6496 10.0049L72.233 22.5466C73.4058 26.6514 71.0289 30.9298 66.9241 32.1026C66.2335 32.2999 65.5188 32.4 64.8005 32.4H63.1805C60.5309 32.4 58.1784 31.1277 56.7005 29.1608C55.2227 31.1277 52.8702 32.4 50.2205 32.4H46.9805C44.3309 32.4 41.9784 31.1277 40.5005 29.1608C39.0227 31.1277 36.6702 32.4 34.0205 32.4H30.7805C28.1309 32.4 25.7784 31.1277 24.3005 29.1608C22.8227 31.1277 20.4702 32.4 17.8205 32.4ZM16.2007 74.52H14.5807C11.8966 74.52 9.7207 72.3441 9.7207 69.66V33.5225C11.5363 34.8538 13.7767 35.64 16.2007 35.64H17.8207C20.1869 35.64 22.4342 34.9086 24.3007 33.6078C26.1672 34.9086 28.4145 35.64 30.7807 35.64H34.0207C36.3869 35.64 38.6342 34.9086 40.5007 33.6078C42.3672 34.9086 44.6145 35.64 46.9807 35.64H50.2207C52.5869 35.64 54.8342 34.9086 56.7007 33.6078C58.5672 34.9086 60.8145 35.64 63.1807 35.64H64.8007C65.82 35.64 66.8343 35.4979 67.8143 35.2179C69.0981 34.8511 70.2628 34.2703 71.2807 33.5252V69.66C71.2807 72.3441 69.1048 74.52 66.4207 74.52H38.8807V45.36C38.8807 43.5706 37.4301 42.12 35.6407 42.12H19.4407C17.6513 42.12 16.2007 43.5706 16.2007 45.36V74.52ZM48.6013 42.12C46.8119 42.12 45.3613 43.5706 45.3613 45.36V58.32C45.3613 60.1094 46.8119 61.56 48.6013 61.56H61.5613C63.3507 61.56 64.8013 60.1094 64.8013 58.32V45.36C64.8013 43.5706 63.3507 42.12 61.5613 42.12H48.6013ZM19.4414 74.52V45.36H35.6414V74.52H19.4414ZM48.5996 58.32V45.36H61.5596V58.32H48.5996Z" fill="#C4CDD5"/>
</svg>
